<?xml version="1.0" encoding="UTF-8"?>
<!DOCTYPE svg PUBLIC "-//W3C//DTD SVG 1.1//EN" "http://www.w3.org/Graphics/SVG/1.1/DTD/svg11.dtd">
<svg version="1.1" xmlns="http://www.w3.org/2000/svg" xmlns:xlink="http://www.w3.org/1999/xlink" x="0" y="0" width="1224" height="216" viewBox="0, 0, 1224, 216">
  <g id="Background">
    <rect x="0" y="0" width="1224" height="216" fill="#FFFFFF"/>
    <g stroke-width="1px">
      <line x1="12" y1="0" x2="12" y2="216" stroke="#AAAAAA" stroke-opacity="0.25"/>
      <line x1="24" y1="0" x2="24" y2="216" stroke="#AAAAAA" stroke-opacity="0.25"/>
      <line x1="36" y1="0" x2="36" y2="216" stroke="#AAAAAA" stroke-opacity="0.25"/>
      <line x1="48" y1="0" x2="48" y2="216" stroke="#AAAAAA" stroke-opacity="0.25"/>
      <line x1="60" y1="0" x2="60" y2="216" stroke="#AAAAAA" stroke-opacity="0.25"/>
      <line x1="72" y1="0" x2="72" y2="216" stroke="#AAAAAA" stroke-opacity="0.5"/>
      <line x1="84" y1="0" x2="84" y2="216" stroke="#AAAAAA" stroke-opacity="0.25"/>
      <line x1="96" y1="0" x2="96" y2="216" stroke="#AAAAAA" stroke-opacity="0.25"/>
      <line x1="108" y1="0" x2="108" y2="216" stroke="#AAAAAA" stroke-opacity="0.25"/>
      <line x1="120" y1="0" x2="120" y2="216" stroke="#AAAAAA" stroke-opacity="0.25"/>
      <line x1="132" y1="0" x2="132" y2="216" stroke="#AAAAAA" stroke-opacity="0.25"/>
      <line x1="144" y1="0" x2="144" y2="216" stroke="#AAAAAA" stroke-opacity="0.5"/>
      <line x1="156" y1="0" x2="156" y2="216" stroke="#AAAAAA" stroke-opacity="0.25"/>
      <line x1="168" y1="0" x2="168" y2="216" stroke="#AAAAAA" stroke-opacity="0.25"/>
      <line x1="180" y1="0" x2="180" y2="216" stroke="#AAAAAA" stroke-opacity="0.25"/>
      <line x1="192" y1="0" x2="192" y2="216" stroke="#AAAAAA" stroke-opacity="0.25"/>
      <line x1="204" y1="0" x2="204" y2="216" stroke="#AAAAAA" stroke-opacity="0.25"/>
      <line x1="216" y1="0" x2="216" y2="216" stroke="#AAAAAA" stroke-opacity="0.5"/>
      <line x1="228" y1="0" x2="228" y2="216" stroke="#AAAAAA" stroke-opacity="0.25"/>
      <line x1="240" y1="0" x2="240" y2="216" stroke="#AAAAAA" stroke-opacity="0.25"/>
      <line x1="252" y1="0" x2="252" y2="216" stroke="#AAAAAA" stroke-opacity="0.25"/>
      <line x1="264" y1="0" x2="264" y2="216" stroke="#AAAAAA" stroke-opacity="0.25"/>
      <line x1="276" y1="0" x2="276" y2="216" stroke="#AAAAAA" stroke-opacity="0.25"/>
      <line x1="288" y1="0" x2="288" y2="216" stroke="#AAAAAA" stroke-opacity="0.5"/>
      <line x1="300" y1="0" x2="300" y2="216" stroke="#AAAAAA" stroke-opacity="0.25"/>
      <line x1="312" y1="0" x2="312" y2="216" stroke="#AAAAAA" stroke-opacity="0.25"/>
      <line x1="324" y1="0" x2="324" y2="216" stroke="#AAAAAA" stroke-opacity="0.25"/>
      <line x1="336" y1="0" x2="336" y2="216" stroke="#AAAAAA" stroke-opacity="0.25"/>
      <line x1="348" y1="0" x2="348" y2="216" stroke="#AAAAAA" stroke-opacity="0.25"/>
      <line x1="360" y1="0" x2="360" y2="216" stroke="#AAAAAA" stroke-opacity="0.5"/>
      <line x1="372" y1="0" x2="372" y2="216" stroke="#AAAAAA" stroke-opacity="0.25"/>
      <line x1="384" y1="0" x2="384" y2="216" stroke="#AAAAAA" stroke-opacity="0.25"/>
      <line x1="396" y1="0" x2="396" y2="216" stroke="#AAAAAA" stroke-opacity="0.25"/>
      <line x1="408" y1="0" x2="408" y2="216" stroke="#AAAAAA" stroke-opacity="0.25"/>
      <line x1="420" y1="0" x2="420" y2="216" stroke="#AAAAAA" stroke-opacity="0.25"/>
      <line x1="432" y1="0" x2="432" y2="216" stroke="#AAAAAA" stroke-opacity="0.5"/>
      <line x1="444" y1="0" x2="444" y2="216" stroke="#AAAAAA" stroke-opacity="0.25"/>
      <line x1="456" y1="0" x2="456" y2="216" stroke="#AAAAAA" stroke-opacity="0.25"/>
      <line x1="468" y1="0" x2="468" y2="216" stroke="#AAAAAA" stroke-opacity="0.25"/>
      <line x1="480" y1="0" x2="480" y2="216" stroke="#AAAAAA" stroke-opacity="0.25"/>
      <line x1="492" y1="0" x2="492" y2="216" stroke="#AAAAAA" stroke-opacity="0.25"/>
      <line x1="504" y1="0" x2="504" y2="216" stroke="#AAAAAA" stroke-opacity="0.5"/>
      <line x1="516" y1="0" x2="516" y2="216" stroke="#AAAAAA" stroke-opacity="0.25"/>
      <line x1="528" y1="0" x2="528" y2="216" stroke="#AAAAAA" stroke-opacity="0.25"/>
      <line x1="540" y1="0" x2="540" y2="216" stroke="#AAAAAA" stroke-opacity="0.25"/>
      <line x1="552" y1="0" x2="552" y2="216" stroke="#AAAAAA" stroke-opacity="0.25"/>
      <line x1="564" y1="0" x2="564" y2="216" stroke="#AAAAAA" stroke-opacity="0.25"/>
      <line x1="576" y1="0" x2="576" y2="216" stroke="#AAAAAA" stroke-opacity="0.5"/>
      <line x1="588" y1="0" x2="588" y2="216" stroke="#AAAAAA" stroke-opacity="0.25"/>
      <line x1="600" y1="0" x2="600" y2="216" stroke="#AAAAAA" stroke-opacity="0.25"/>
      <line x1="612" y1="0" x2="612" y2="216" stroke="#AAAAAA" stroke-opacity="0.25"/>
      <line x1="624" y1="0" x2="624" y2="216" stroke="#AAAAAA" stroke-opacity="0.25"/>
      <line x1="636" y1="0" x2="636" y2="216" stroke="#AAAAAA" stroke-opacity="0.25"/>
      <line x1="648" y1="0" x2="648" y2="216" stroke="#AAAAAA" stroke-opacity="0.5"/>
      <line x1="660" y1="0" x2="660" y2="216" stroke="#AAAAAA" stroke-opacity="0.25"/>
      <line x1="672" y1="0" x2="672" y2="216" stroke="#AAAAAA" stroke-opacity="0.25"/>
      <line x1="684" y1="0" x2="684" y2="216" stroke="#AAAAAA" stroke-opacity="0.25"/>
      <line x1="696" y1="0" x2="696" y2="216" stroke="#AAAAAA" stroke-opacity="0.25"/>
      <line x1="708" y1="0" x2="708" y2="216" stroke="#AAAAAA" stroke-opacity="0.25"/>
      <line x1="720" y1="0" x2="720" y2="216" stroke="#AAAAAA" stroke-opacity="0.5"/>
      <line x1="732" y1="0" x2="732" y2="216" stroke="#AAAAAA" stroke-opacity="0.25"/>
      <line x1="744" y1="0" x2="744" y2="216" stroke="#AAAAAA" stroke-opacity="0.25"/>
      <line x1="756" y1="0" x2="756" y2="216" stroke="#AAAAAA" stroke-opacity="0.25"/>
      <line x1="768" y1="0" x2="768" y2="216" stroke="#AAAAAA" stroke-opacity="0.25"/>
      <line x1="780" y1="0" x2="780" y2="216" stroke="#AAAAAA" stroke-opacity="0.25"/>
      <line x1="792" y1="0" x2="792" y2="216" stroke="#AAAAAA" stroke-opacity="0.5"/>
      <line x1="804" y1="0" x2="804" y2="216" stroke="#AAAAAA" stroke-opacity="0.25"/>
      <line x1="816" y1="0" x2="816" y2="216" stroke="#AAAAAA" stroke-opacity="0.25"/>
      <line x1="828" y1="0" x2="828" y2="216" stroke="#AAAAAA" stroke-opacity="0.25"/>
      <line x1="840" y1="0" x2="840" y2="216" stroke="#AAAAAA" stroke-opacity="0.25"/>
      <line x1="852" y1="0" x2="852" y2="216" stroke="#AAAAAA" stroke-opacity="0.25"/>
      <line x1="864" y1="0" x2="864" y2="216" stroke="#AAAAAA" stroke-opacity="0.5"/>
      <line x1="876" y1="0" x2="876" y2="216" stroke="#AAAAAA" stroke-opacity="0.25"/>
      <line x1="888" y1="0" x2="888" y2="216" stroke="#AAAAAA" stroke-opacity="0.25"/>
      <line x1="900" y1="0" x2="900" y2="216" stroke="#AAAAAA" stroke-opacity="0.25"/>
      <line x1="912" y1="0" x2="912" y2="216" stroke="#AAAAAA" stroke-opacity="0.25"/>
      <line x1="924" y1="0" x2="924" y2="216" stroke="#AAAAAA" stroke-opacity="0.25"/>
      <line x1="936" y1="0" x2="936" y2="216" stroke="#AAAAAA" stroke-opacity="0.5"/>
      <line x1="948" y1="0" x2="948" y2="216" stroke="#AAAAAA" stroke-opacity="0.25"/>
      <line x1="960" y1="0" x2="960" y2="216" stroke="#AAAAAA" stroke-opacity="0.25"/>
      <line x1="972" y1="0" x2="972" y2="216" stroke="#AAAAAA" stroke-opacity="0.25"/>
      <line x1="984" y1="0" x2="984" y2="216" stroke="#AAAAAA" stroke-opacity="0.25"/>
      <line x1="996" y1="0" x2="996" y2="216" stroke="#AAAAAA" stroke-opacity="0.25"/>
      <line x1="1008" y1="0" x2="1008" y2="216" stroke="#AAAAAA" stroke-opacity="0.5"/>
      <line x1="1020" y1="0" x2="1020" y2="216" stroke="#AAAAAA" stroke-opacity="0.25"/>
      <line x1="1032" y1="0" x2="1032" y2="216" stroke="#AAAAAA" stroke-opacity="0.25"/>
      <line x1="1044" y1="0" x2="1044" y2="216" stroke="#AAAAAA" stroke-opacity="0.25"/>
      <line x1="1056" y1="0" x2="1056" y2="216" stroke="#AAAAAA" stroke-opacity="0.25"/>
      <line x1="1068" y1="0" x2="1068" y2="216" stroke="#AAAAAA" stroke-opacity="0.25"/>
      <line x1="1080" y1="0" x2="1080" y2="216" stroke="#AAAAAA" stroke-opacity="0.5"/>
      <line x1="1092" y1="0" x2="1092" y2="216" stroke="#AAAAAA" stroke-opacity="0.25"/>
      <line x1="1104" y1="0" x2="1104" y2="216" stroke="#AAAAAA" stroke-opacity="0.25"/>
      <line x1="1116" y1="0" x2="1116" y2="216" stroke="#AAAAAA" stroke-opacity="0.25"/>
      <line x1="1128" y1="0" x2="1128" y2="216" stroke="#AAAAAA" stroke-opacity="0.25"/>
      <line x1="1140" y1="0" x2="1140" y2="216" stroke="#AAAAAA" stroke-opacity="0.25"/>
      <line x1="1152" y1="0" x2="1152" y2="216" stroke="#AAAAAA" stroke-opacity="0.5"/>
      <line x1="1164" y1="0" x2="1164" y2="216" stroke="#AAAAAA" stroke-opacity="0.25"/>
      <line x1="1176" y1="0" x2="1176" y2="216" stroke="#AAAAAA" stroke-opacity="0.25"/>
      <line x1="1188" y1="0" x2="1188" y2="216" stroke="#AAAAAA" stroke-opacity="0.25"/>
      <line x1="1200" y1="0" x2="1200" y2="216" stroke="#AAAAAA" stroke-opacity="0.25"/>
      <line x1="1212" y1="0" x2="1212" y2="216" stroke="#AAAAAA" stroke-opacity="0.25"/>
      <line x1="1224" y1="0" x2="1224" y2="216" stroke="#AAAAAA" stroke-opacity="0.25"/>
      <line x1="0" y1="12" x2="1224" y2="12" stroke="#AAAAAA" stroke-opacity="0.25"/>
      <line x1="0" y1="24" x2="1224" y2="24" stroke="#AAAAAA" stroke-opacity="0.25"/>
      <line x1="0" y1="36" x2="1224" y2="36" stroke="#AAAAAA" stroke-opacity="0.25"/>
      <line x1="0" y1="48" x2="1224" y2="48" stroke="#AAAAAA" stroke-opacity="0.25"/>
      <line x1="0" y1="60" x2="1224" y2="60" stroke="#AAAAAA" stroke-opacity="0.25"/>
      <line x1="0" y1="72" x2="1224" y2="72" stroke="#AAAAAA" stroke-opacity="0.5"/>
      <line x1="0" y1="84" x2="1224" y2="84" stroke="#AAAAAA" stroke-opacity="0.25"/>
      <line x1="0" y1="96" x2="1224" y2="96" stroke="#AAAAAA" stroke-opacity="0.25"/>
      <line x1="0" y1="108" x2="1224" y2="108" stroke="#AAAAAA" stroke-opacity="0.25"/>
      <line x1="0" y1="120" x2="1224" y2="120" stroke="#AAAAAA" stroke-opacity="0.25"/>
      <line x1="0" y1="132" x2="1224" y2="132" stroke="#AAAAAA" stroke-opacity="0.25"/>
      <line x1="0" y1="144" x2="1224" y2="144" stroke="#AAAAAA" stroke-opacity="0.5"/>
      <line x1="0" y1="156" x2="1224" y2="156" stroke="#AAAAAA" stroke-opacity="0.25"/>
      <line x1="0" y1="168" x2="1224" y2="168" stroke="#AAAAAA" stroke-opacity="0.25"/>
      <line x1="0" y1="180" x2="1224" y2="180" stroke="#AAAAAA" stroke-opacity="0.25"/>
      <line x1="0" y1="192" x2="1224" y2="192" stroke="#AAAAAA" stroke-opacity="0.25"/>
      <line x1="0" y1="204" x2="1224" y2="204" stroke="#AAAAAA" stroke-opacity="0.25"/>
      <line x1="0" y1="216" x2="1224" y2="216" stroke="#AAAAAA" stroke-opacity="0.25"/>
    </g>
  </g>
  <g id="Layer_1">
    <g>
      <text transform="matrix(1, 0, 0, 1, 323.219, 105)">
        <tspan x="-135" y="42.75" font-family="Courier-Bold" font-size="141" fill="#18B092">git</tspan>
      </text>
      <text transform="matrix(1, 0, 0, 1, 850.971, 101.648)">
        <tspan x="-392.752" y="49.846" font-family="Courier-Bold" font-size="141" fill="#444FAD">Mechanics</tspan>
      </text>
      <g>
        <path d="M30.991,45.514 L147.79,45.514 C154.418,45.514 159.79,50.633 159.79,56.948 L159.79,170.843 C159.79,177.158 154.418,182.277 147.79,182.277 L30.991,182.277 C24.364,182.277 18.991,177.158 18.991,170.843 L18.991,56.948 C18.991,50.633 24.364,45.514 30.991,45.514 z" fill="#18B092"/>
        <path d="M30.991,45.514 L147.79,45.514 C154.418,45.514 159.79,50.633 159.79,56.948 L159.79,170.843 C159.79,177.158 154.418,182.277 147.79,182.277 L30.991,182.277 C24.364,182.277 18.991,177.158 18.991,170.843 L18.991,56.948 C18.991,50.633 24.364,45.514 30.991,45.514 z" fill-opacity="0" stroke="#18B092" stroke-width="2" stroke-linecap="round" stroke-linejoin="round"/>
      </g>
      <g>
        <path d="M66.675,66.836 L113.735,66.836 L113.735,160.955 L66.675,160.955 z" fill-opacity="0" stroke="#FFFFFF" stroke-width="10" stroke-linecap="round" stroke-linejoin="round"/>
        <g>
          <path d="M137.314,160.955 L137.314,97.036" fill-opacity="0" stroke="#FFFFFF" stroke-width="10" stroke-linecap="round" stroke-linejoin="round"/>
          <path d="M145.714,97.036 L137.314,74.636 L128.914,97.036 z" fill="#FFFFFF" fill-opacity="1" stroke="#FFFFFF" stroke-width="10" stroke-opacity="1"/>
        </g>
        <g>
          <path d="M43.525,66.836 L43.525,130.755" fill-opacity="0" stroke="#FFFFFF" stroke-width="10" stroke-linecap="round" stroke-linejoin="round"/>
          <path d="M35.125,130.755 L43.525,153.155 L51.925,130.755 z" fill="#FFFFFF" fill-opacity="1" stroke="#FFFFFF" stroke-width="10" stroke-opacity="1"/>
        </g>
      </g>
    </g>
  </g>
</svg>
